:FULLY-SPECIFIED
:FORCE-ALL-JOINTS-BE-3DOF
:DEGREES
178
root 8.18455 16.5626 -12.231 7.40749 6.50428 -1.57173
lfemur -23.0917 7.28282 -17.8367
ltibia 51.1689 0 0
lfoot -8.53273 10.2523 0
ltoes -9.01939 0 0
rfemur -21.1305 3.48481 25.9068
rtibia 30.1212 0 0
rfoot -17.5113 0.678019 0
rtoes -12.7297 0 0
lowerback -4.55527 0.162398 0.121237
upperback -1.86298 0.190554 3.25948
thorax 0.670261 0.103711 3.25866
lowerneck -15.1051 -6.83006 -15.4873
upperneck 13.9694 -8.65662 15.7042
head 8.22748 -3.62251 6.84517
lclavicle 9.74527e-015 -1.58772e-014 0
lhumerus -46.5718 -8.46546 94.7318
lradius 28.3617 0 0
lwrist 9.13177 0 0
lhand -12.5513 -22.4836 0
lfingers 7.12502 0 0
lthumb 13.5208 6.98315 0
rclavicle 9.74527e-015 -1.58772e-014 0
rhumerus -41.2213 7.91541 -78.821
rradius 41.2466 0 0
rwrist -20.9344 0 0
rhand -31.983 -26.4645 0
rfingers 7.12502 0 0
rthumb -5.23216 -56.3749 0
179
root 8.1769 16.5722 -12.1091 7.4063 6.35051 -1.64461
lfemur -24.4293 7.26201 -18.054
ltibia 51.7275 0 0
lfoot -9.32165 10.4624 0
ltoes -8.71605 0 0
rfemur -20.5147 3.57338 26.1012
rtibia 29.8598 0 0
rfoot -17.8355 0.764426 0
rtoes -12.7657 0 0
lowerback -4.50786 0.304714 0.183229
upperback -1.87175 0.378685 3.25217
thorax 0.621681 0.198313 3.22769
lowerneck -14.8906 -6.84322 -15.5303
upperneck 13.8712 -8.69811 15.7749
head 8.16881 -3.64739 6.87177
lclavicle 7.7486e-015 -1.60567e-014 0
lhumerus -46.892 -8.79903 94.9405
lradius 28.8166 0 0
lwrist 10.006 0 0
lhand -12.9305 -22.6326 0
lfingers 7.12502 0 0
lthumb 13.1557 6.86353 0
rclavicle 7.7486e-015 -1.60567e-014 0
rhumerus -40.9812 8.00459 -78.7049
rradius 41.7477 0 0
rwrist -21.1012 0 0
rhand -32.0898 -26.4572 0
rfingers 7.12502 0 0
rthumb -5.33526 -56.3654 0
180
root 8.16926 16.5817 -11.9872 7.40512 6.19675 -1.7175
lfemur -25.767 7.2412 -18.2713
ltibia 52.2862 0 0
lfoot -10.1106 10.6725 0
ltoes -8.41271 0 0
rfemur -19.899 3.66194 26.2956
rtibia 29.5984 0 0
rfoot -18.1598 0.850833 0
rtoes -12.8017 0 0
lowerback -4.46045 0.447029 0.245221
upperback -1.88053 0.566815 3.24487
thorax 0.573101 0.292914 3.19671
lowerneck -14.6761 -6.85637 -15.5734
upperneck 13.7729 -8.7396 15.8456
head 8.11014 -3.67227 6.89837
lclavicle 5.75194e-015 -1.62363e-014 0
lhumerus -47.2123 -9.13261 95.1492
lradius 29.2715 0 0
lwrist 10.8802 0 0
lhand -13.3098 -22.7816 0
lfingers 7.12502 0 0
lthumb 12.7905 6.74391 0
rclavicle 5.75194e-015 -1.62363e-014 0
rhumerus -40.7411 8.09376 -78.5887
rradius 42.2489 0 0
rwrist -21.268 0 0
rhand -32.1965 -26.4498 0
rfingers 7.12502 0 0
rthumb -5.43835 -56.3559 0
181
root 8.16161 16.5913 -11.8652 7.40393 6.04298 -1.79039
lfemur -27.1046 7.22039 -18.4887
ltibia 52.8448 0 0
lfoot -10.8995 10.8826 0
ltoes -8.10937 0 0
rfemur -19.2832 3.75051 26.49
rtibia 29.337 0 0
rfoot -18.484 0.937239 0
rtoes -12.8377 0 0
lowerback -4.41305 0.589345 0.307213
upperback -1.8893 0.754946 3.23757
thorax 0.524521 0.387515 3.16574
lowerneck -14.4615 -6.86953 -15.6165
upperneck 13.6747 -8.78109 15.9163
head 8.05148 -3.69715 6.92496
lclavicle 3.75527e-015 -1.64158e-014 0
lhumerus -47.5325 -9.46618 95.358
lradius 29.7264 0 0
lwrist 11.7544 0 0
lhand -13.689 -22.9306 0
lfingers 7.12502 0 0
lthumb 12.4253 6.62429 0
rclavicle 3.75527e-015 -1.64158e-014 0
rhumerus -40.501 8.18293 -78.4726
rradius 42.75 0 0
rwrist -21.4348 0 0
rhand -32.3033 -26.4425 0
rfingers 7.12502 0 0
rthumb -5.54145 -56.3463 0
